<?xml version="1.0" encoding="UTF-8" standalone="no"?>
<!-- Created with Inkscape (http://www.inkscape.org/) -->

<svg
   width="64pt"
   height="64pt"
   viewBox="0 0 22.577778 22.577778"
   version="1.1"
   id="svg831"
   inkscape:version="1.1.2 (0a00cf5339, 2022-02-04)"
   sodipodi:docname="30 - Healthy Care.svg"
   inkscape:export-filename="/media/taufikramadhan/Data/Tr Design Studio/Project Design/TR Creative Design/Icon Design/Project Hiring/Icon Icons/025 - Healthcare And Medical/5 - Send/3 - Flat/30 - Healthy Care.png"
   inkscape:export-xdpi="576"
   inkscape:export-ydpi="576"
   xmlns:inkscape="http://www.inkscape.org/namespaces/inkscape"
   xmlns:sodipodi="http://sodipodi.sourceforge.net/DTD/sodipodi-0.dtd"
   xmlns="http://www.w3.org/2000/svg"
   xmlns:svg="http://www.w3.org/2000/svg"
   xmlns:rdf="http://www.w3.org/1999/02/22-rdf-syntax-ns#"
   xmlns:cc="http://creativecommons.org/ns#"
   xmlns:dc="http://purl.org/dc/elements/1.1/">
  <defs
     id="defs825">
    <pattern
       id="EMFhbasepattern"
       patternUnits="userSpaceOnUse"
       width="6"
       height="6"
       x="0"
       y="0" />
    <pattern
       id="EMFhbasepattern-9"
       patternUnits="userSpaceOnUse"
       width="6"
       height="6"
       x="0"
       y="0" />
    <pattern
       id="EMFhbasepattern-0"
       patternUnits="userSpaceOnUse"
       width="6"
       height="6"
       x="0"
       y="0" />
    <pattern
       id="EMFhbasepattern-7"
       patternUnits="userSpaceOnUse"
       width="6"
       height="6"
       x="0"
       y="0" />
    <pattern
       id="EMFhbasepattern-2"
       patternUnits="userSpaceOnUse"
       width="6"
       height="6"
       x="0"
       y="0" />
    <pattern
       id="EMFhbasepattern-98"
       patternUnits="userSpaceOnUse"
       width="6"
       height="6"
       x="0"
       y="0" />
    <pattern
       id="EMFhbasepattern-6"
       patternUnits="userSpaceOnUse"
       width="6"
       height="6"
       x="0"
       y="0" />
    <pattern
       id="EMFhbasepattern-01"
       patternUnits="userSpaceOnUse"
       width="6"
       height="6"
       x="0"
       y="0" />
    <pattern
       id="EMFhbasepattern-07"
       patternUnits="userSpaceOnUse"
       width="6"
       height="6"
       x="0"
       y="0" />
    <pattern
       id="EMFhbasepattern-8"
       patternUnits="userSpaceOnUse"
       width="6"
       height="6"
       x="0"
       y="0" />
    <pattern
       id="EMFhbasepattern-4"
       patternUnits="userSpaceOnUse"
       width="6"
       height="6"
       x="0"
       y="0" />
    <pattern
       id="EMFhbasepattern-40"
       patternUnits="userSpaceOnUse"
       width="6"
       height="6"
       x="0"
       y="0" />
    <pattern
       id="EMFhbasepattern-08"
       patternUnits="userSpaceOnUse"
       width="6"
       height="6"
       x="0"
       y="0" />
    <pattern
       id="EMFhbasepattern-04"
       patternUnits="userSpaceOnUse"
       width="6"
       height="6"
       x="0"
       y="0" />
    <pattern
       id="EMFhbasepattern-014"
       patternUnits="userSpaceOnUse"
       width="6"
       height="6"
       x="0"
       y="0" />
    <pattern
       id="EMFhbasepattern-27"
       patternUnits="userSpaceOnUse"
       width="6"
       height="6"
       x="0"
       y="0" />
    <pattern
       id="EMFhbasepattern-09"
       patternUnits="userSpaceOnUse"
       width="6"
       height="6"
       x="0"
       y="0" />
    <pattern
       id="EMFhbasepattern-5"
       patternUnits="userSpaceOnUse"
       width="6"
       height="6"
       x="0"
       y="0" />
    <pattern
       id="EMFhbasepattern-018"
       patternUnits="userSpaceOnUse"
       width="6"
       height="6"
       x="0"
       y="0" />
  </defs>
  <sodipodi:namedview
     id="base"
     pagecolor="#ffffff"
     bordercolor="#666666"
     borderopacity="1.0"
     inkscape:pageopacity="0.0"
     inkscape:pageshadow="2"
     inkscape:zoom="4.6828782"
     inkscape:cx="43.349408"
     inkscape:cy="42.602005"
     inkscape:document-units="pt"
     inkscape:current-layer="layer1"
     showgrid="false"
     units="pt"
     inkscape:window-width="1366"
     inkscape:window-height="719"
     inkscape:window-x="0"
     inkscape:window-y="26"
     inkscape:window-maximized="1"
     inkscape:pagecheckerboard="true"
     inkscape:showpageshadow="false"
     inkscape:object-paths="true"
     inkscape:snap-intersection-paths="true"
     inkscape:snap-smooth-nodes="true"
     inkscape:snap-midpoints="true"
     showguides="true"
     inkscape:snap-bbox="true"
     inkscape:bbox-nodes="true"
     inkscape:snap-nodes="false"
     inkscape:snap-global="true"
     inkscape:snap-others="false">
    <inkscape:grid
       type="xygrid"
       id="grid1378" />
    <sodipodi:guide
       position="0.97013831,21.607643"
       orientation="78.000048,0"
       id="guide1380"
       inkscape:locked="false" />
    <sodipodi:guide
       position="0.97013831,0.97013129"
       orientation="0,78.000005"
       id="guide1382"
       inkscape:locked="false" />
    <sodipodi:guide
       position="21.607639,0.97013129"
       orientation="-78.000048,0"
       id="guide1384"
       inkscape:locked="false" />
    <sodipodi:guide
       position="21.607639,21.607643"
       orientation="0,-78.000005"
       id="guide1386"
       inkscape:locked="false" />
  </sodipodi:namedview>
  <metadata
     id="metadata828">
    <rdf:RDF>
      <cc:Work
         rdf:about="">
        <dc:format>image/svg+xml</dc:format>
        <dc:type
           rdf:resource="http://purl.org/dc/dcmitype/StillImage" />
      </cc:Work>
    </rdf:RDF>
  </metadata>
  <g
     inkscape:label="Icon"
     inkscape:groupmode="layer"
     id="layer1"
     transform="translate(0,-274.42223)">
    <g
       id="g72791"
       style="display:inline;stroke-width:0.795643"
       transform="matrix(1.2568451,0,0,1.2568451,-114.36465,-191.94334)">
      <path
         style="color:#000000;fill:#ff7247;fill-opacity:1;stroke-width:0.795643;stroke-linecap:round;stroke-linejoin:round;stroke-miterlimit:1.5;-inkscape-stroke:none"
         d="m 95.31841,377.1111 c -0.314389,-0.0833 -0.575605,-0.0759 -0.871144,-0.0779 -0.146936,-5.6e-4 -0.266193,0.11869 -0.265625,0.26563 v 2.6582 c -1.77e-4,0.0466 0.01195,0.0924 0.03516,0.13281 l 0.654297,1.13086 c 0.07572,0.13119 0.245917,0.17216 0.373047,0.0898 l 0.421875,-0.27539 c 0.06455,-0.0424 0.107361,-0.11089 0.117187,-0.1875 l 0.333031,-2.629 c 0.05113,-0.51874 -0.293323,-0.99407 -0.797828,-1.10751 z"
         id="path290904"
         sodipodi:nodetypes="ccccccccccc" />
      <path
         style="color:#000000;fill:#ff7247;fill-opacity:1;stroke-width:0.795643;stroke-linecap:round;stroke-linejoin:round;stroke-miterlimit:1.5;-inkscape-stroke:none"
         d="m 104.6323,377.1111 c 0.31439,-0.0833 0.5756,-0.0759 0.87114,-0.0779 0.14694,-5.6e-4 0.2662,0.11869 0.26563,0.26563 v 2.6582 c 1.8e-4,0.0466 -0.0119,0.0924 -0.0352,0.13281 l -0.6543,1.13086 c -0.0757,0.13119 -0.24592,0.17216 -0.37305,0.0898 l -0.42187,-0.27539 c -0.0645,-0.0424 -0.10736,-0.11089 -0.11719,-0.1875 l -0.33303,-2.629 c -0.0511,-0.51874 0.29332,-0.99407 0.79783,-1.10751 z"
         id="path14892"
         sodipodi:nodetypes="ccccccccccc" />
      <path
         style="color:#000000;fill:#3a4d5c;stroke-width:0.795643;stroke-linecap:round;stroke-linejoin:round;stroke-miterlimit:1.5;-inkscape-stroke:none"
         d="m 101.59961,375.06055 c -0.14541,5e-4 -0.26317,0.11826 -0.26367,0.26367 -5.7e-4,0.14617 0.1175,0.26512 0.26367,0.26562 h 0.97852 c 0.0586,0 0.19219,0.0351 0.28515,0.11133 0.093,0.0762 0.16016,0.17413 0.16016,0.35938 0,0.18524 -0.0672,0.28317 -0.16016,0.35937 -0.093,0.0762 -0.22658,0.11133 -0.28515,0.11133 h -0.50977 c -0.47632,0 -0.90399,0.2597 -1.28906,0.5625 -0.30721,0.24157 -0.58846,0.52561 -0.833978,0.76592 -0.06222,0.0609 -0.121985,0.11928 -0.179039,0.17384 -0.105331,0.10048 -0.10971,0.26717 -0.0098,0.37304 0.100627,0.10669 0.268837,0.11118 0.375007,0.01 0.29473,-0.28186 0.63104,-0.63538 0.9759,-0.90655 0.34486,-0.27118 0.69065,-0.44922 0.96094,-0.44922 h 0.50977 c 0.20283,0 0.42441,-0.0712 0.62109,-0.23243 0.19668,-0.16121 0.35351,-0.43076 0.35351,-0.76757 0,-0.33682 -0.15683,-0.60637 -0.35351,-0.76758 -0.19668,-0.16121 -0.41826,-0.23242 -0.62109,-0.23242 z"
         id="path5402"
         sodipodi:nodetypes="cccscsssssscccsssssscc" />
      <path
         id="path34091"
         style="color:#000000;fill:#2f3f4b;fill-opacity:1;stroke-width:3.00716;stroke-linecap:round;stroke-linejoin:round;stroke-miterlimit:1.5;-inkscape-stroke:none"
         d="m 383.99805,359.03125 a 0.99999869,0.99999869 0 0 0 -0.9961,0.99805 0.99999869,0.99999869 0 0 0 0.9961,1.0039 h 3.0039 v -2 z"
         transform="matrix(0.26458334,0,0,0.26458334,0,280.06666)" />
      <path
         style="color:#000000;fill:#f0517a;stroke-width:3.00716;stroke-linecap:round;stroke-linejoin:round;stroke-miterlimit:1.5;-inkscape-stroke:none"
         d="m 386.00596,384.66024 c 2.24047,-2.41168 3.8457,-5.45947 3.8457,-8.82813 0,-4.30802 -3.33568,-7.87691 -7.5,-7.87695 l -10e-5,-8e-5 v 0.002 c -1.73257,0 -3.33673,0.62222 -4.60547,1.6543 -1.26751,-1.03021 -2.86986,-1.6543 -4.59961,-1.6543 -4.1643,0 -7.50586,3.5689 -7.50586,7.87695 0,3.37561 1.61937,6.42767 3.86719,8.8418 2.24783,2.41417 5.13556,4.2293 7.91407,5.1836 0.22203,0.0748 0.46327,0.0693 0.68364,-0.0156 2.77549,-0.95951 5.66001,-2.77192 7.90044,-5.18359 z"
         transform="matrix(0.26458334,0,0,0.26458334,0,280.06666)"
         id="path290818"
         sodipodi:nodetypes="ssscccsssccs" />
      <path
         id="path290830"
         style="color:#000000;fill:#3a4d5c;stroke-width:3.00716;stroke-linecap:round;stroke-linejoin:round;stroke-miterlimit:1.5;-inkscape-stroke:none"
         d="m 377.74609,383.00781 a 0.99999869,0.99999869 0 0 0 -0.99609,0.99805 v 5.60352 c 0.22463,0.0878 0.44827,0.1732 0.67188,0.25 0.22203,0.0748 0.46322,0.0693 0.68359,-0.0156 0.21421,-0.074 0.42937,-0.15418 0.64453,-0.23828 v -5.59961 a 0.99999869,0.99999869 0 0 0 -1.00391,-0.99805 z"
         transform="matrix(0.26458334,0,0,0.26458334,0,280.06666)" />
      <path
         id="path40386"
         style="color:#000000;fill:#2f3f4b;fill-opacity:1;stroke-width:3.00716;stroke-linecap:round;stroke-linejoin:round;stroke-miterlimit:1.5;-inkscape-stroke:none"
         d="m 377.74609,383.00781 a 0.99999871,0.99999871 0 0 0 -0.99609,0.99805 v 3.00586 l 2,-0.008 v -2.99805 a 0.99999871,0.99999871 0 0 0 -1.00391,-0.99805 z"
         transform="matrix(0.26458334,0,0,0.26458334,0,280.06666)" />
      <path
         style="color:#000000;fill:#c8dae5;stroke-width:3.00716;stroke-linecap:round;stroke-linejoin:round;stroke-miterlimit:1.5;-inkscape-stroke:none"
         d="m 377.76758,373.60352 c -2.85525,0.0151 -5.19637,2.35138 -5.21094,5.20507 -0.008,1.83665 0.96384,3.52355 2.51367,4.44532 l -0.004,0.75195 a 1.0000987,1.0000987 0 0 0 1.0039,1.00976 l 3.35157,-0.0137 a 1.0000987,1.0000987 0 0 0 0.99609,-0.99804 l 0.01,-0.79688 c 1.53312,-0.93562 2.50472,-2.60477 2.51563,-4.42773 0.0151,-2.85343 -2.32077,-5.19034 -5.17578,-5.17578 z"
         transform="matrix(0.26458334,0,0,0.26458334,0,280.06666)"
         id="path290836" />
      <path
         style="color:#000000;fill:#c8dae5;stroke-width:0.795643;stroke-linecap:round;stroke-linejoin:round;stroke-miterlimit:1.5;-inkscape-stroke:none"
         d="m 100.32999,376.11914 h 1.11719 c 0.22869,0 0.41796,-0.19291 0.41796,-0.41992 v -0.75 c 0,-0.22699 -0.18922,-0.41797 -0.41796,-0.41797 h -1.1171 z"
         id="path290848"
         sodipodi:nodetypes="csssscc" />
      <path
         id="path32232"
         style="color:#000000;fill:#9ebed1;fill-opacity:1;stroke-width:3.00716;stroke-linecap:round;stroke-linejoin:round;stroke-miterlimit:1.5;-inkscape-stroke:none"
         d="m 379.19443,363.03346 2.66104,-2.6e-4 c 0.43172,-0.89658 0.67383,-1.92601 0.67383,-3.0039 0,-1.07539 -0.24009,-2.10401 -0.66992,-2.99805 l -2.65909,2.6e-4 z"
         transform="matrix(0.26458334,0,0,0.26458334,0,280.06666)"
         sodipodi:nodetypes="ccsccc" />
      <path
         style="color:#000000;fill:#c8dae5;stroke-width:0.795643;stroke-linecap:round;stroke-linejoin:round;stroke-miterlimit:1.5;-inkscape-stroke:none"
         d="m 98.431641,373.71875 a 0.26460996,0.26460996 0 0 0 -0.148438,0.0449 l -0.441406,0.29883 a 0.2645835,0.2645835 0 0 0 -0.07227,0.36719 0.2645835,0.2645835 0 0 0 0.367188,0.0703 l 0.375,-0.25391 h 0.802734 c 0.438875,0 0.837891,0.4514 0.837891,1.07813 0,0.62672 -0.399016,1.07812 -0.837891,1.07812 h -0.785156 l -0.367188,-0.3164 a 0.2645835,0.2645835 0 0 0 -0.373047,0.0273 0.2645835,0.2645835 0 0 0 0.02734,0.37305 l 0.441406,0.38086 a 0.26460996,0.26460996 0 0 0 0.173829,0.0645 h 0.882812 c 0.784175,0 1.367185,-0.74711 1.367185,-1.60742 0,-0.86031 -0.58301,-1.60547 -1.367185,-1.60547 z"
         id="rect201479" />
      <path
         id="path60395"
         style="fill:#82abc4;fill-opacity:1;stroke-width:0.795643;stroke-linecap:round;stroke-linejoin:round;stroke-miterlimit:1.5"
         d="m 98.43172,376.93168 a 0.26460996,0.26460996 0 0 1 -0.148312,-0.045 l -0.441833,-0.29869 a 0.2645835,0.2645835 0 0 1 -0.07183,-0.36742 0.2645835,0.2645835 0 0 1 0.366903,-0.0703 l 0.375169,0.25424 h 0.23306 c -0.0097,0.20815 -0.104081,0.39537 -0.250113,0.5271 z" />
      <path
         id="path53989"
         style="fill:#82abc4;fill-opacity:1;stroke-width:3.00716;stroke-linecap:round;stroke-linejoin:round;stroke-miterlimit:1.5"
         d="m 372.02539,353.96094 a 1.0001006,1.0001006 0 0 0 -0.56055,0.16992 l -1.66992,1.12891 a 1.0000006,1.0000006 0 0 0 -0.27148,1.38867 1.0000006,1.0000006 0 0 0 1.38672,0.26562 l 1.41796,-0.96094 h 0.88086 c -0.0365,-0.7867 -0.39338,-1.49428 -0.94531,-1.99218 z"
         transform="matrix(0.26458334,0,0,0.26458334,0,280.06666)" />
      <path
         style="color:#000000;fill:#9ebed1;stroke-width:0.795643;stroke-linecap:round;stroke-linejoin:round;stroke-miterlimit:1.5;-inkscape-stroke:none"
         d="m 97.988281,373.79492 c -0.266146,0 -0.484375,0.22158 -0.484375,0.48633 0,0.26475 0.218215,0.48828 0.484375,0.48828 0.266146,0 0.486328,-0.22353 0.486328,-0.48828 0,-0.26475 -0.220167,-0.48633 -0.486328,-0.48633 z"
         id="path290858" />
      <path
         style="color:#000000;fill:#9ebed1;stroke-width:0.795643;stroke-linecap:round;stroke-linejoin:round;stroke-miterlimit:1.5;-inkscape-stroke:none"
         d="m 97.988281,375.79883 c -0.266131,0 -0.484375,0.22158 -0.484375,0.48633 0,0.26475 0.218215,0.48828 0.484375,0.48828 0.266132,0 0.486328,-0.22354 0.486328,-0.48828 0,-0.26476 -0.220167,-0.48633 -0.486328,-0.48633 z"
         id="path290864" />
      <path
         style="color:#000000;fill:#9ebed1;stroke-width:0.795643;stroke-linecap:round;stroke-linejoin:round;stroke-miterlimit:1.5;-inkscape-stroke:none"
         d="m 99.927734,380.02734 a 0.26458299,0.26458299 0 0 0 -0.263672,0.26368 0.26458299,0.26458299 0 0 0 0.263672,0.26562 h 0.03711 a 0.26458299,0.26458299 0 0 0 0.263676,-0.26562 0.26458299,0.26458299 0 0 0 -0.263676,-0.26368 z"
         id="path18978" />
      <path
         style="color:#000000;fill:#ff7247;stroke-width:0.795643;stroke-linecap:round;stroke-linejoin:round;stroke-miterlimit:1.5;-inkscape-stroke:none"
         d="m 93.998047,376.02734 -0.501953,0.86133 c -0.01737,0.0301 -0.02865,0.0633 -0.0332,0.0977 l -0.279297,2.10547 c -0.01008,0.0726 0.01043,0.14619 0.05664,0.20312 l 0.773438,0.94141 c 0.0731,0.0892 0.195587,0.12084 0.302734,0.0781 l 0.300781,-0.12109 c 0.08639,-0.035 0.14797,-0.11294 0.16211,-0.20508 l 0.439453,-2.80664 c 9.07e-4,-0.006 0.0016,-0.013 0.002,-0.0195 0.03396,-0.41585 -0.171532,-0.81669 -0.529297,-1.03125 l -0.328125,-0.19727 c -0.06101,-0.0367 -0.134232,-0.0473 -0.20315,-0.0293 -0.0683,0.0177 -0.126661,0.062 -0.162134,0.12302 z"
         id="path290910"
         sodipodi:nodetypes="ccccccccccccccc" />
      <path
         style="color:#000000;fill:#ffa185;stroke-width:0.795643;stroke-linecap:round;stroke-linejoin:round;stroke-miterlimit:1.5;-inkscape-stroke:none"
         d="m 93.375,376.56055 c -0.127534,-0.0612 -0.28069,-0.0113 -0.347656,0.11328 l -1.10351,2.08417 c -0.175359,0.36139 -0.201596,0.74898 -0.09666,1.08986 l 0.821304,2.28127 c 0.134751,0.37414 0.375312,0.70088 0.69336,0.93945 l 0.386719,0.29101 c 0.102134,0.0766 0.168114,0.18794 0.18164,0.30469 l 0.06055,0.5293 c 0.01861,0.16162 0.17728,0.26833 0.333984,0.22461 l 3.15625,-0.87695 c 0.136775,-0.0385 0.218691,-0.17823 0.185547,-0.31641 l -0.199219,-0.81057 c -0.183396,-0.46765 -0.487331,-0.85745 -0.88086,-1.13869 l -0.791015,-0.56641 -0.533204,-0.69336 c -0.121327,-0.158 -0.298502,-0.26923 -0.511718,-0.31445 -0.123462,-0.0262 -0.258908,0.0562 -0.394532,0.0957 l -0.58598,-0.71893 0.451172,-1.14257 c 0.108892,-0.22317 0.154206,-0.45416 0.08789,-0.66993 -0.06632,-0.21576 -0.237647,-0.3757 -0.445309,-0.47951 z"
         id="path290898"
         sodipodi:nodetypes="ccccccccccccccccscccscc" />
      <path
         id="path109968"
         style="color:#000000;fill:#ff825c;stroke-width:0.795643;stroke-linecap:round;stroke-linejoin:round;stroke-miterlimit:1.5;-inkscape-stroke:none"
         d="m 93.027399,376.67369 -0.12919,0.24391 0.7152,0.34416 c 0.117819,0.06 0.155446,0.11279 0.170016,0.1602 0.01484,0.0483 0.0024,0.14908 -0.05684,0.28112 l -0.703318,1.77354 c -0.05404,0.13592 0.01283,0.28978 0.148828,0.34364 0.135917,0.054 0.289793,-0.0124 0.343649,-0.14831 0.0037,-0.009 0.008,-0.0186 0.01188,-0.0279 l 0.346749,0.42271 c -0.08355,0.13646 -0.122594,0.28956 -0.126089,0.4315 -0.0054,0.21821 0.05744,0.41776 0.173632,0.57619 l 0.742075,1.01338 c 0.129323,0.1866 0.176244,0.38116 0.250113,0.60151 0.04675,0.13876 0.197271,0.21303 0.335896,0.16588 0.137742,-0.0468 0.211762,-0.19579 0.165881,-0.33383 -0.06797,-0.26746 -0.198364,-0.53751 -0.324011,-0.74776 l -0.744141,-1.01182 c -0.03652,-0.0498 -0.07468,-0.15738 -0.07234,-0.25218 0.0024,-0.0948 0.03082,-0.16981 0.111104,-0.23616 0.07901,-0.0653 0.148156,-0.0727 0.232542,-0.0548 0.08439,0.0179 0.171304,0.0779 0.203089,0.11937 l 0.556556,0.72451 c 0.01606,0.021 0.03534,0.0395 0.05684,0.0548 l 0.824241,0.58963 c 0.309319,0.22106 0.546955,0.52554 0.687295,0.87902 l 0.185518,0.76377 c 0.03509,0.1409 0.177646,0.22708 0.318844,0.19327 0.141679,-0.0342 0.228518,-0.17652 0.19482,-0.31832 l -0.19327,-0.79324 c -0.0031,-0.012 -0.0066,-0.0237 -0.01138,-0.0351 -0.177535,-0.45005 -0.48187,-0.83962 -0.875398,-1.12086 l -0.790649,-0.56637 -0.533302,-0.6935 c -0.121327,-0.158 -0.298384,-0.26899 -0.511596,-0.31419 -0.13843,-0.0294 -0.297058,-0.0235 -0.448034,0.031 l -0.532744,-0.65424 0.451136,-1.14257 c 0.108891,-0.22317 0.154164,-0.45447 0.08785,-0.67024 -0.06632,-0.21576 -0.237156,-0.37572 -0.442867,-0.47853 l -0.468704,-0.22531 c -0.03144,-0.0181 -0.07141,-0.0278 -0.112877,-0.027 -0.09122,0.002 -0.191236,0.0496 -0.237001,0.1392 z"
         sodipodi:nodetypes="cccscccsccsccccccccsscccccccccccccscccscccc" />
      <path
         style="color:#000000;fill:#4f697d;stroke-width:0.795643;stroke-linecap:round;stroke-linejoin:round;stroke-miterlimit:1.5;-inkscape-stroke:none"
         d="m 97.652344,383.01172 c -0.130891,-0.0417 -0.273561,-0.0216 -0.390625,0.043 -0.242894,0.13393 -0.73415,0.36621 -1.539063,0.58203 -0.805712,0.21603 -1.347988,0.26015 -1.625,0.26562 -0.133411,0.003 -0.267142,0.0566 -0.359375,0.15821 -0.09223,0.10155 -0.134374,0.2502 -0.115234,0.38867 l 0.234375,1.68945 a 0.26460996,0.26460996 0 0 0 0.283203,0.22656 c 0,0 1.35251,-0.10457 2.222656,-0.33789 0.870145,-0.23331 2.09375,-0.81836 2.09375,-0.81836 a 0.26460996,0.26460996 0 0 0 0.13086,-0.33789 l -0.642579,-1.58203 c -0.05272,-0.12976 -0.162077,-0.23569 -0.292968,-0.27734 z"
         id="path290880" />
      <path
         style="color:#000000;fill:#ff7247;stroke-width:0.795643;stroke-linecap:round;stroke-linejoin:round;stroke-miterlimit:1.5;-inkscape-stroke:none"
         d="m 105.95266,376.02734 0.50196,0.86133 c 0.0174,0.0301 0.0286,0.0633 0.0332,0.0977 l 0.27929,2.10547 c 0.0101,0.0726 -0.0104,0.14619 -0.0566,0.20312 l -0.77344,0.94141 c -0.0731,0.0892 -0.19558,0.12084 -0.30273,0.0781 l -0.30078,-0.12109 c -0.0864,-0.035 -0.14797,-0.11294 -0.16211,-0.20508 l -0.43945,-2.80664 c -9.1e-4,-0.006 -0.002,-0.013 -0.002,-0.0195 -0.034,-0.41585 0.17153,-0.81669 0.52929,-1.03125 l 0.32813,-0.19727 c 0.061,-0.0367 0.13423,-0.0473 0.20315,-0.0293 0.0683,0.0177 0.12666,0.062 0.16213,0.12302 z"
         id="path14890"
         sodipodi:nodetypes="ccccccccccccccc" />
      <path
         style="color:#000000;fill:#ffa185;stroke-width:0.795643;stroke-linecap:round;stroke-linejoin:round;stroke-miterlimit:1.5;-inkscape-stroke:none"
         d="m 106.57571,376.56055 c 0.12753,-0.0612 0.28069,-0.0113 0.34766,0.11328 l 1.10351,2.08417 c 0.17535,0.36139 0.20159,0.74898 0.0967,1.08986 l -0.82131,2.28127 c -0.13475,0.37414 -0.37531,0.70088 -0.69336,0.93945 l -0.38672,0.29101 c -0.10213,0.0766 -0.16811,0.18794 -0.18164,0.30469 l -0.0605,0.5293 c -0.0186,0.16162 -0.17728,0.26833 -0.33398,0.22461 l -3.15625,-0.87695 c -0.13678,-0.0385 -0.21869,-0.17823 -0.18555,-0.31641 l 0.19922,-0.81057 c 0.1834,-0.46765 0.48733,-0.85745 0.88086,-1.13869 l 0.79102,-0.56641 0.5332,-0.69336 c 0.12133,-0.158 0.2985,-0.26923 0.51172,-0.31445 0.12346,-0.0262 0.25891,0.0562 0.39453,0.0957 l 0.58598,-0.71893 -0.45117,-1.14257 c -0.10889,-0.22317 -0.15421,-0.45416 -0.0879,-0.66993 0.0663,-0.21576 0.23764,-0.3757 0.44531,-0.47951 z"
         id="path14894"
         sodipodi:nodetypes="ccccccccccccccccscccscc" />
      <path
         id="path14896"
         style="color:#000000;fill:#ff825c;stroke-width:0.795643;stroke-linecap:round;stroke-linejoin:round;stroke-miterlimit:1.5;-inkscape-stroke:none"
         d="m 106.92331,376.67369 0.12919,0.24391 -0.7152,0.34416 c -0.11782,0.06 -0.15545,0.11279 -0.17002,0.1602 -0.0148,0.0483 -0.002,0.14908 0.0568,0.28112 l 0.70332,1.77354 c 0.054,0.13592 -0.0128,0.28978 -0.14883,0.34364 -0.13591,0.054 -0.28979,-0.0124 -0.34364,-0.14831 -0.004,-0.009 -0.008,-0.0186 -0.0119,-0.0279 l -0.34675,0.42271 c 0.0836,0.13646 0.12259,0.28956 0.12609,0.4315 0.005,0.21821 -0.0574,0.41776 -0.17364,0.57619 l -0.74207,1.01338 c -0.12932,0.1866 -0.17625,0.38116 -0.25011,0.60151 -0.0468,0.13876 -0.19728,0.21303 -0.3359,0.16588 -0.13774,-0.0468 -0.21176,-0.19579 -0.16588,-0.33383 0.068,-0.26746 0.19836,-0.53751 0.32401,-0.74776 l 0.74414,-1.01182 c 0.0365,-0.0498 0.0747,-0.15738 0.0723,-0.25218 -0.002,-0.0948 -0.0308,-0.16981 -0.1111,-0.23616 -0.079,-0.0653 -0.14816,-0.0727 -0.23255,-0.0548 -0.0844,0.0179 -0.1713,0.0779 -0.20308,0.11937 l -0.55656,0.72451 c -0.0161,0.021 -0.0353,0.0395 -0.0568,0.0548 l -0.82424,0.58963 c -0.30932,0.22106 -0.54696,0.52554 -0.6873,0.87902 l -0.18551,0.76377 c -0.0351,0.1409 -0.17765,0.22708 -0.31885,0.19327 -0.14168,-0.0342 -0.22852,-0.17652 -0.19482,-0.31832 l 0.19327,-0.79324 c 0.003,-0.012 0.007,-0.0237 0.0114,-0.0351 0.17754,-0.45005 0.48187,-0.83962 0.8754,-1.12086 l 0.79065,-0.56637 0.5333,-0.6935 c 0.12133,-0.158 0.29838,-0.26899 0.5116,-0.31419 0.13843,-0.0294 0.29705,-0.0235 0.44803,0.031 l 0.53274,-0.65424 -0.45113,-1.14257 c -0.10889,-0.22317 -0.15417,-0.45447 -0.0878,-0.67024 0.0663,-0.21576 0.23715,-0.37572 0.44287,-0.47853 l 0.4687,-0.22531 c 0.0314,-0.0181 0.0714,-0.0278 0.11288,-0.027 0.0912,0.002 0.19123,0.0496 0.237,0.1392 z"
         sodipodi:nodetypes="cccscccsccsccccccccsscccccccccccccscccscccc" />
      <path
         style="color:#000000;fill:#4f697d;stroke-width:0.795643;stroke-linecap:round;stroke-linejoin:round;stroke-miterlimit:1.5;-inkscape-stroke:none"
         d="m 102.29837,383.01172 c 0.13089,-0.0417 0.27356,-0.0216 0.39062,0.043 0.24289,0.13393 0.73415,0.36621 1.53906,0.58203 0.80572,0.21603 1.34799,0.26015 1.625,0.26562 0.13341,0.003 0.26715,0.0566 0.35938,0.15821 0.0922,0.10155 0.13437,0.2502 0.11523,0.38867 l -0.23437,1.68945 a 0.26460996,0.26460996 0 0 1 -0.28321,0.22656 c 0,0 -1.35251,-0.10457 -2.22265,-0.33789 -0.87015,-0.23331 -2.09375,-0.81836 -2.09375,-0.81836 a 0.26460996,0.26460996 0 0 1 -0.13086,-0.33789 l 0.64258,-1.58203 c 0.0527,-0.12976 0.16207,-0.23569 0.29297,-0.27734 z"
         id="path14898" />
      <path
         id="path15944"
         style="color:#000000;fill:#3a4d5c;fill-opacity:1;stroke-width:0.795643;stroke-linecap:round;stroke-linejoin:round;stroke-miterlimit:1.5;-inkscape-stroke:none"
         d="m 97.502062,382.9901 c -0.08404,0.001 -0.167132,0.0242 -0.240295,0.0646 -0.242895,0.13393 -0.734012,0.36606 -1.538925,0.58188 -0.805712,0.21603 -1.348211,0.26014 -1.625224,0.26562 -0.133411,0.003 -0.266917,0.057 -0.359151,0.15864 -0.09223,0.10155 -0.134379,0.25014 -0.115239,0.38861 l 0.07028,0.50643 c 0.301329,-0.0157 0.801706,-0.0737 1.500166,-0.26097 0.804913,-0.21582 1.29603,-0.44794 1.538925,-0.58188 0.117063,-0.0646 0.259782,-0.0846 0.390674,-0.0429 0.130889,0.0417 0.240284,0.14775 0.293004,0.27751 l 0.45682,1.12447 c 0.343273,-0.14823 0.583943,-0.26303 0.583943,-0.26303 a 0.26460996,0.26460996 0 0 0 0.130741,-0.33796 l -0.642337,-1.58182 c -0.05272,-0.12976 -0.162115,-0.23585 -0.293005,-0.2775 -0.04909,-0.0156 -0.09995,-0.0225 -0.150377,-0.0217 z" />
      <path
         id="path20787"
         style="color:#000000;fill:#3a4d5c;fill-opacity:1;stroke-width:0.795643;stroke-linecap:round;stroke-linejoin:round;stroke-miterlimit:1.5;-inkscape-stroke:none"
         d="m 102.4488,382.9901 c 0.084,0.001 0.16714,0.0242 0.2403,0.0646 0.24289,0.13393 0.73401,0.36606 1.53892,0.58188 0.80572,0.21603 1.34822,0.26014 1.62523,0.26562 0.13341,0.003 0.26692,0.057 0.35915,0.15864 0.0922,0.10155 0.13438,0.25014 0.11524,0.38861 l -0.0703,0.50643 c -0.30133,-0.0157 -0.80171,-0.0737 -1.50017,-0.26097 -0.80491,-0.21582 -1.29603,-0.44794 -1.53892,-0.58188 -0.11707,-0.0646 -0.25978,-0.0846 -0.39068,-0.0429 -0.13089,0.0417 -0.24028,0.14775 -0.293,0.27751 l -0.45682,1.12447 c -0.34327,-0.14823 -0.58394,-0.26303 -0.58394,-0.26303 a 0.26460996,0.26460996 0 0 1 -0.13074,-0.33796 l 0.64233,-1.58182 c 0.0527,-0.12976 0.16212,-0.23585 0.29301,-0.2775 0.0491,-0.0156 0.1,-0.0225 0.15037,-0.0217 z" />
      <path
         id="path21741"
         style="color:#000000;fill:#dc1c4b;fill-opacity:1;stroke-width:0.795643;stroke-linecap:round;stroke-linejoin:round;stroke-miterlimit:1.5;-inkscape-stroke:none"
         d="m 102.61906,380.03472 c 0,0.82751 -0.36616,1.58185 -0.89297,2.19625 0.14149,-0.12205 0.27696,-0.25222 0.40463,-0.38964 0.59279,-0.63809 1.01751,-1.44448 1.01751,-2.33578 0,-1.13983 -0.87097,-2.08431 -1.97278,-2.08405 -0.52599,0 -0.86966,0.16437 -1.230128,0.43817 -0.182827,0.13887 -0.343534,0.32699 -0.517567,0.53728 0.335691,-0.27307 0.760125,-0.4377 1.218535,-0.43796 1.10181,-2.6e-4 1.97277,0.9359 1.97277,2.07573 z"
         sodipodi:nodetypes="scsscsccs" />
      <path
         id="path45073"
         style="color:#000000;fill:#9ebed1;fill-opacity:1;stroke-width:0.795643;stroke-linecap:round;stroke-linejoin:round;stroke-miterlimit:1.5;-inkscape-stroke:none"
         d="m 98.704559,379.71279 c 0.227584,-0.16666 0.506962,-0.26609 0.808485,-0.26795 0.755646,-0.004 1.373686,0.61419 1.369686,1.36916 -10e-4,0.20405 -0.0481,0.40091 -0.13229,0.57878 0.35019,-0.25545 0.56785,-0.66456 0.57051,-1.10795 0.004,-0.75497 -0.61404,-1.37328 -1.36969,-1.36915 -0.548529,0.003 -1.025036,0.32969 -1.246701,0.79711 z"
         sodipodi:nodetypes="ccccccc" />
      <path
         id="path48274"
         style="fill:#dc1c4b;fill-opacity:1;stroke:none;stroke-width:0.421028;stroke-linecap:round;stroke-linejoin:round;stroke-miterlimit:1.5;stop-color:#000000"
         d="m 97.215775,378.15938 c 1.102225,-0.58942 2.20038,0.22944 2.20038,0.22944 0.402165,-0.3909 0.615145,-0.43711 0.919325,-0.52141 l -0.0724,-0.21704 c -0.11232,0.06 -0.21936,0.12921 -0.317808,0.20929 -0.335362,-0.27258 -0.759317,-0.4377 -1.216955,-0.4377 -0.607929,0 -1.1491,0.28821 -1.512542,0.73742 z"
         sodipodi:nodetypes="ccccccc" />
    </g>
  </g>
</svg>
